<svg xmlns="http://www.w3.org/2000/svg" xmlns:xlink="http://www.w3.org/1999/xlink" width="24" height="24" viewBox="0 0 24 24">
    <defs>
        <path id="bnk6nxe30a" d="M12 22c-5.523 0-10-4.478-10-9.999C2 6.478 6.477 2 12 2s10 4.478 10 10.001C22 17.521 17.523 22 12 22m.064-21c6.112 0 11.064 4.926 11.064 11.001C23.128 18.074 18.176 23 12.064 23S1 18.074 1 12.001C1 5.926 5.952 1 12.064 1zM11.5 4.5c-.276 0-.5.224-.5.5v8c0 .133.053.26.146.354l4 4c.196.195.512.195.708 0 .195-.196.195-.512 0-.708L12 12.793V5c0-.276-.224-.5-.5-.5z"/>
    </defs>
    <g fill="none" fill-rule="evenodd">
        <g>
            <g transform="translate(-903 -545) translate(903 545)">
                <path d="M0 0L24 0 24 24 0 24z"/>
                <use fill="#000" xlink:href="#bnk6nxe30a"/>
            </g>
        </g>
    </g>
</svg>
