<svg xmlns="http://www.w3.org/2000/svg" width="24" height="24" viewBox="0 0 24 24">
    <g fill="none" fill-rule="evenodd">
        <g fill="#000">
            <g>
                <g>
                    <path d="M18.496 11H13V5.503c0-.278-.226-.503-.504-.503h-.992c-.278 0-.504.225-.504.503V11H5.504c-.278 0-.504.225-.504.504v.991c0 .279.226.504.504.504H11v5.497c0 .278.226.504.504.504h.992c.278 0 .504-.226.504-.504V13h5.496c.278 0 .504-.225.504-.504v-.991c0-.279-.226-.504-.504-.504" transform="translate(-402 -676) translate(323 675) translate(79 1) rotate(45 12 12)"/>
                </g>
            </g>
        </g>
    </g>
</svg>
