<svg xmlns="http://www.w3.org/2000/svg" width="24" height="24" viewBox="0 0 24 24">
    <g fill="none" fill-rule="evenodd">
        <g>
            <g>
                <g>
                    <g>
                        <path fill="#202020" d="M19.136 3.59H1.864v-.862h17.272v.862zm-.864 11.228H2.728V4.454h15.544v10.364zm.864-12.954h-7.772c0-.477-.387-.864-.864-.864s-.864.387-.864.864H1.864c-.477 0-.864.387-.864.864v.862c0 .478.387.864.864.864v10.364c0 .478.387.864.864.864h7.34v1.116l-2.465 2.465c-.077.078-.125.186-.125.305 0 .238.193.432.431.432.12 0 .227-.048.306-.127l2.285-2.285 2.285 2.285c.078.079.187.127.305.127.239 0 .432-.194.432-.432 0-.119-.048-.227-.125-.305l-2.465-2.465v-1.116h7.34c.477 0 .864-.386.864-.864V4.454c.477 0 .864-.386.864-.864v-.862c0-.477-.387-.864-.864-.864zm-7.34 10.364h4.318c.238 0 .432-.194.432-.432 0-.239-.194-.432-.432-.432h-4.318c-.239 0-.432.193-.432.432 0 .238.193.432.432.432zM5.318 7.046h3.454v4.318H5.318V7.046zm0 5.182h3.454c.477 0 .864-.387.864-.864V7.046c0-.477-.387-.864-.864-.864H5.318c-.477 0-.864.387-.864.864v4.318c0 .477.387.864.864.864zm6.478-1.728h1.726c.239 0 .432-.194.432-.432s-.193-.432-.432-.432h-1.726c-.239 0-.432.194-.432.432s.193.432.432.432zm0-3.454h2.59c.239 0 .432-.194.432-.432 0-.239-.193-.432-.432-.432h-2.59c-.239 0-.432.193-.432.432 0 .238.193.432.432.432zm0 1.726h4.318c.238 0 .432-.192.432-.432 0-.237-.194-.43-.432-.43h-4.318c-.239 0-.432.193-.432.43 0 .24.193.432.432.432z" transform="translate(-374 -18) translate(335) translate(39 18)"/>
                        <g>
                            <path fill="#202020" d="M6 0C2.686 0 0 2.686 0 6s2.686 6 6 6 6-2.686 6-6-2.686-6-6-6z" transform="translate(-374 -18) translate(335) translate(39 18) translate(12 12)"/>
                            <path fill="#FFF" d="M6.045 11.09C3.26 11.09 1 8.833 1 6.046 1 3.26 3.259 1 6.045 1c2.787 0 5.046 2.259 5.046 5.045 0 2.787-2.259 5.046-5.046 5.046z" transform="translate(-374 -18) translate(335) translate(39 18) translate(12 12)"/>
                            <path fill="#202020" d="M6.455 3.273c.25 0 .454.203.454.454v1.364h1.364c.25 0 .454.203.454.454v.91c0 .25-.203.454-.454.454H6.909v1.364c0 .25-.204.454-.454.454h-.91c-.25 0-.454-.203-.454-.454V6.909H3.727c-.25 0-.454-.203-.454-.454v-.91c0-.25.203-.454.454-.454h1.364V3.727c0-.25.203-.454.454-.454z" transform="translate(-374 -18) translate(335) translate(39 18) translate(12 12)"/>
                        </g>
                    </g>
                </g>
            </g>
        </g>
    </g>
</svg>
