<svg xmlns="http://www.w3.org/2000/svg" width="21" height="20" viewBox="0 0 21 20">
    <g fill="none" fill-rule="evenodd">
        <g>
            <g>
                <g>
                    <path d="M0 0L20.303 0 20.303 20 0 20z" transform="translate(-990 -119) translate(974 114) translate(16.242 5)"/>
                    <path fill="#676767" d="M18.569 5.565L17.51 6.607 13.596 2.75l1.058-1.042S15.407.91 16.612.91c1.53 0 2.768 1.22 2.768 2.727 0 .754-.31 1.435-.811 1.929zM6.922 17.039v-3.403c0-.25-.207-.455-.462-.455H3.006l9.937-9.788 3.915 3.857-9.936 9.789zm-.923.592l-3.23.744v-1.102h-1.12l.755-3.182H6v3.54zM16.612 0c-1.02 0-1.943.406-2.61 1.066L1.541 13.338 0 20l6.763-1.52L19.22 6.207c.668-.657 1.082-1.566 1.082-2.571C20.303 1.628 18.651 0 16.612 0z" transform="translate(-990 -119) translate(974 114) translate(16.242 5)"/>
                </g>
            </g>
        </g>
    </g>
</svg>
