<svg xmlns="http://www.w3.org/2000/svg" width="32" height="32" viewBox="0 0 32 32">
    <g fill="none" fill-rule="evenodd">
        <g>
            <g>
                <circle cx="16" cy="16" r="16" fill="#FFF"/>
                <path fill="#3C3C3B" d="M24.292 11.565l-1.042 1.042-3.857-3.857 1.042-1.042s.742-.799 1.929-.799c1.506 0 2.727 1.22 2.727 2.727 0 .754-.306 1.435-.8 1.929zM12.819 23.039v-3.403c0-.25-.204-.455-.455-.455H8.96l9.789-9.788 3.856 3.857-9.787 9.789zm-.91.592l-3.182.744v-1.102H7.625l.743-3.182h3.541v3.54zM22.364 6c-1.005 0-1.914.406-2.571 1.066L7.519 19.338 6 26l6.662-1.52 12.272-12.273C25.593 11.55 26 10.641 26 9.636 26 7.628 24.372 6 22.364 6z"/>
            </g>
        </g>
    </g>
</svg>
