<svg xmlns="http://www.w3.org/2000/svg" width="24" height="24" viewBox="0 0 24 24">
    <g fill="none" fill-rule="evenodd">
        <g>
            <g>
                <path d="M0 0L24 0 24 24 0 24z" transform="translate(-903 -604) translate(903 604)"/>
                <path fill="#000" d="M14.728 6.677c-.301 0-.546.244-.546.544 0 .3.245.544.546.544.3 0 .544-.243.544-.544 0-.3-.244-.544-.544-.544zm8.18 9.458l-5.454-2.72v-2.593l5.455-2.721v8.034zm-6.545.336H1.091V6.677c0-.601.489-1.089 1.091-1.089h13.09c.602 0 1.091.488 1.091 1.089v9.794zm-1.09 2.177H2.182c-.603 0-1.092-.487-1.092-1.088h15.272c0 .601-.489 1.088-1.09 1.088zm8.181-11.971c-.087 0-.167.025-.24.063l-.003-.006-5.757 2.87V6.678c0-1.202-.976-2.177-2.182-2.177H2.182C.977 4.5 0 5.475 0 6.677V17.56c0 1.202.977 2.177 2.182 2.177h13.09c1.206 0 2.182-.975 2.182-2.177v-2.928l5.757 2.87.002-.004c.074.036.154.062.241.062.301 0 .546-.243.546-.544V7.22c0-.3-.245-.544-.546-.544zm-12 2.176c-.3 0-.545-.243-.545-.544 0-.3.244-.544.545-.544.301 0 .546.244.546.544 0 .301-.245.544-.546.544zm0-2.176c-.903 0-1.636.731-1.636 1.632 0 .902.733 1.632 1.636 1.632.905 0 1.637-.73 1.637-1.632 0-.9-.732-1.632-1.637-1.632z" transform="translate(-903 -604) translate(903 604)"/>
            </g>
        </g>
    </g>
</svg>
