<svg xmlns="http://www.w3.org/2000/svg" width="32" height="32" viewBox="0 0 32 32">
    <g fill="none" fill-rule="evenodd">
        <g>
            <g transform="translate(-659 -1256) translate(659 1256)">
                <circle cx="16" cy="16" r="15.5" stroke="#39B333"/>
                <path fill="#39B333" d="M15.044 9.492c.066-.952.969-1.688 1.942-1.445l.266.067c.47.118.89.464 1.03.982.223.83.542 2.555.063 4.59.15-.02.3-.038.45-.052.726-.066 1.7-.073 2.561.214.527.176 1.012.693 1.222 1.295.187.542.162 1.183-.239 1.764.06.121.105.247.14.37.08.274.116.577.116.87 0 .295-.037.597-.115.872-.04.137-.092.278-.163.411.172.394.109.834-.003 1.169-.115.33-.282.64-.497.917.055.154.078.317.078.473 0 .31-.091.636-.258.928-.34.597-1.015 1.083-1.968 1.083v-1.018c.573 0 .917-.277 1.085-.57.076-.128.118-.274.123-.423 0-.122-.036-.168-.04-.173l-.361-.36.36-.36c.205-.205.413-.52.513-.819.106-.318.044-.449-.005-.497l-.36-.36.36-.36c.044-.043.107-.143.157-.32.049-.17.076-.377.076-.592 0-.215-.027-.421-.076-.591-.051-.178-.113-.278-.157-.321l-.36-.36.36-.36c.36-.359.38-.726.272-1.039-.124-.356-.403-.603-.581-.663-.665-.221-1.473-.228-2.148-.167-.374.035-.746.093-1.113.174l-.015.003h-.003c-.18.046-.37-.011-.496-.147-.126-.137-.168-.33-.11-.507.513-1.555.564-3.226.148-4.81-.03-.112-.13-.218-.293-.259l-.266-.066c-.312-.079-.654.159-.68.527-.076 1.101-.242 2.188-.49 2.9-.177.512-.614 1.291-1.26 2.013-.648.724-1.546 1.435-2.66 1.738-.401.11-.631.403-.631.662v4.073c0 .264.224.524.563.56 1.316.139 1.97.539 2.535.883l.04.025c.275.167.504.302.79.4.282.097.642.166 1.16.166h3.563V24h-3.562c-.616 0-1.09-.082-1.492-.222-.347-.126-.678-.292-.988-.492l-.049-.031c-.512-.312-1.016-.62-2.104-.735-.78-.083-1.474-.712-1.474-1.573v-4.071c0-.865.697-1.458 1.381-1.644.864-.236 1.602-.801 2.17-1.435.57-.638.93-1.303 1.057-1.668.203-.585.363-1.567.436-2.636v-.001z"/>
            </g>
        </g>
    </g>
</svg>
