<svg xmlns="http://www.w3.org/2000/svg" width="32" height="32" viewBox="0 0 32 32">
    <g fill="none" fill-rule="evenodd">
        <g>
            <g transform="translate(-624 -1640) translate(624 1640)">
                <circle cx="16" cy="16" r="15.5" stroke="#C00"/>
                <path fill="#C00" d="M15.044 22.508c.066.952.97 1.688 1.942 1.445l.266-.066c.496-.116.89-.492 1.03-.982.224-.83.542-2.557.063-4.59.138.02.29.037.45.051.727.067 1.7.073 2.562-.214.527-.176 1.011-.693 1.221-1.295.213-.592.124-1.25-.238-1.765.059-.12.105-.246.14-.368.079-.275.115-.578.115-.873 0-.293-.036-.595-.115-.87-.04-.143-.094-.28-.163-.411.173-.394.11-.835-.003-1.17-.114-.33-.282-.64-.496-.916.055-.155.077-.318.077-.473-.004-.326-.093-.646-.257-.928C21.298 8.485 20.623 8 19.669 8v1.018c.573 0 .917.277 1.085.57.088.152.123.305.123.423 0 .122-.035.168-.04.173l-.36.36.359.36c.205.205.414.52.514.82.105.317.043.447-.006.496l-.359.36.36.36c.043.043.106.143.156.32.05.17.077.377.077.591 0 .216-.028.423-.077.593-.05.177-.113.277-.157.32l-.359.36.36.36c.359.358.38.727.271 1.04-.124.355-.403.603-.58.662-.666.222-1.474.228-2.149.167-.374-.035-.746-.093-1.113-.173l-.014-.004h-.004c-.18-.045-.37.012-.497.148-.126.136-.167.33-.109.506.512 1.555.563 3.225.148 4.81-.03.113-.13.218-.293.259l-.267.067c-.312.077-.654-.159-.679-.528-.076-1.1-.243-2.189-.49-2.901-.178-.511-.614-1.29-1.26-2.012-.648-.725-1.546-1.433-2.66-1.739-.401-.109-.631-.403-.631-.661v-4.073c0-.264.224-.524.563-.56 1.316-.14 1.97-.539 2.535-.884l.04-.024c.276-.168.505-.302.79-.4.282-.098.642-.166 1.16-.166h3.563V8h-3.562c-.616 0-1.09.081-1.492.22-.347.128-.678.293-.988.494l-.048.03c-.513.314-1.017.62-2.105.736-.78.082-1.474.712-1.474 1.572v4.072c0 .866.697 1.458 1.381 1.644.864.237 1.602.801 2.17 1.436.57.637.93 1.302 1.058 1.667.202.585.362 1.567.435 2.637z"/>
            </g>
        </g>
    </g>
</svg>
