<svg xmlns="http://www.w3.org/2000/svg" width="43" height="43" viewBox="0 0 43 43">
    <g fill="none" fill-rule="evenodd">
        <g fill="#676767">
            <g>
                <path d="M35.915 32.987c-1.894-3.051-6.062-6.32-14.582-6.32s-12.685 3.266-14.581 6.32c3.539 4.436 8.906 7.018 14.581 7.013 5.675.005 11.043-2.577 14.582-7.013zM21.333 24c4.419 0 8-3.582 8-8s-3.581-8-8-8c-4.418 0-8 3.582-8 8s3.582 8 8 8z" transform="translate(-122 -1251) translate(122 1251)"/>
                <path d="M21.333 2.667c-10.309 0-18.666 8.357-18.666 18.666C2.667 31.643 11.024 40 21.333 40 31.643 40 40 31.643 40 21.333c0-10.309-8.357-18.666-18.667-18.666zM0 21.333C0 9.551 9.551 0 21.333 0c11.782 0 21.334 9.551 21.334 21.333 0 11.782-9.552 21.334-21.334 21.334S0 33.115 0 21.333z" transform="translate(-122 -1251) translate(122 1251)"/>
            </g>
        </g>
    </g>
</svg>
