<svg xmlns="http://www.w3.org/2000/svg" width="20" height="20" viewBox="0 0 20 20">
    <g fill="none" fill-rule="evenodd">
        <g fill="#676767">
            <g>
                <g>
                    <g>
                        <path d="M18.894 17.408l-.056-.056-4.27-4.265c-.417.54-.902 1.035-1.442 1.463l4.258 4.254c.395.416 1.037.438 1.454.045.417-.383.44-1.024.056-1.44M7.864 0c4.338 0 7.864 3.51 7.864 7.843 0 1.654-.53 3.252-1.51 4.58-.484.698-1.081 1.306-1.78 1.812-2.388 1.71-5.543 1.947-8.168.596C1.645 13.492 0 10.791 0 7.843 0 3.511 3.526 0 7.864 0zm0 1.024c-3.774 0-6.839 3.05-6.839 6.82 0 2.565 1.431 4.928 3.718 6.098s5.036.957 7.12-.54c.598-.427 1.116-.956 1.533-1.553v-.045c.845-1.148 1.307-2.532 1.307-3.96 0-3.77-3.065-6.82-6.839-6.82z" transform="translate(-256 -20) translate(240 10) translate(16 10)"/>
                    </g>
                </g>
            </g>
        </g>
    </g>
</svg>
