<svg xmlns="http://www.w3.org/2000/svg" width="24" height="24" viewBox="0 0 24 24">
    <g fill="none" fill-rule="evenodd">
        <g fill="#202020">
            <g>
                <g>
                    <g>
                        <path d="M12 11.638L2.073 7.88 12 4.12l9.928 3.76L12 11.637zm8.034 5.269l-3.552-.883-.002.01c-.039-.008-.075-.023-.117-.023-.11 0-.21.041-.296.1l-.006-.009-4.039 3.01L8.51 16.12l-.006.008c-.09-.068-.199-.116-.32-.116-.042 0-.079.015-.118.024l-.002-.01-3.604.895.838-6.663 6.468 2.448.003-.003c.07.034.147.057.232.057.084 0 .162-.023.232-.057l.002.003 6.54-2.476 1.26 6.678zM24 7.879c0-.216-.129-.398-.312-.486V7.39l-.015-.006-.015-.006-11.424-4.325-.002.003C12.162 3.022 12.084 3 12 3c-.085 0-.161.022-.232.056l-.003-.003L.343 7.378l-.015.006-.017.006.001.003C.13 7.481 0 7.663 0 7.88c0 .216.129.399.312.486l-.001.003.017.007.015.005 1.024.388-.692 5.157c-.396.163-.675.55-.675 1.002 0 .6.488 1.084 1.091 1.084.602 0 1.091-.485 1.091-1.084 0-.349-.169-.655-.427-.854l.66-4.908 1.832.694-.97 7.706.01.003c-.004.023-.015.044-.015.07 0 .3.245.542.546.542.042 0 .077-.013.116-.022l.003.009 4.105-1.02 3.631 3.093.005-.007c.092.068.2.115.322.115.112 0 .21-.041.298-.1l.004.01 4.18-3.117 4.127 1.026.002-.01c.039.008.076.023.117.023.3 0 .544-.243.544-.542 0-.036-.011-.066-.017-.1h.008l-1.452-7.7 3.847-1.458.015-.005.016-.007-.001-.003c.183-.087.312-.27.312-.486z" transform="translate(-196 -18) translate(145) translate(51 18)"/>
                    </g>
                </g>
            </g>
        </g>
    </g>
</svg>
