<svg xmlns="http://www.w3.org/2000/svg" width="105" height="24" viewBox="0 0 105 24">
    <g fill="none" fill-rule="evenodd">
        <g>
            <g>
                <g>
                    <path fill="#000" d="M53.424 18.458c-.349-.349-.549-.832-.549-1.326V12c0-2.275-1.85-4.125-4.125-4.125h-3.176c-1.441 0-2.796.767-3.538 2.003l-.25.418c-.32.533-.148 1.224.385 1.544.533.319 1.224.146 1.544-.386l.25-.419c.337-.561.954-.91 1.609-.91h3.176c1.034 0 1.875.841 1.875 1.875v.54l-6.212.995c-1.833.293-3.163 1.853-3.163 3.709 0 2.071 1.685 3.756 3.756 3.756h4.113c1.015 0 1.936-.407 2.612-1.063.035.037.066.076.102.112l.621.621c.22.22.508.33.796.33.288 0 .576-.11.795-.33.44-.439.44-1.15 0-1.59l-.62-.622zm-2.799-1.214c0 .83-.676 1.506-1.506 1.506h-4.113c-.83 0-1.506-.676-1.506-1.506 0-.744.533-1.37 1.268-1.488l5.857-.937v2.425zM63.75 7.875h-1.875c-.742 0-1.438.2-2.04.545-.198-.325-.552-.545-.96-.545-.621 0-1.125.504-1.125 1.125v10.875c0 .621.504 1.125 1.125 1.125S60 20.496 60 19.875V12c0-1.034.841-1.875 1.875-1.875h1.875c.621 0 1.125-.504 1.125-1.125s-.504-1.125-1.125-1.125M74.625 7.875H71.25c-2.275 0-4.125 1.85-4.125 4.125v4.875c0 2.275 1.85 4.125 4.125 4.125h3.948c1.463 0 2.779-.813 3.433-2.122.278-.556.053-1.231-.503-1.51-.556-.277-1.231-.052-1.51.504-.27.541-.815.878-1.42.878H71.25c-1.034 0-1.875-.841-1.875-1.875v-1.5h8.25c.621 0 1.125-.503 1.125-1.125V12c0-2.275-1.85-4.125-4.125-4.125zm1.875 5.25h-7.125V12c0-1.034.841-1.875 1.875-1.875h3.375c1.034 0 1.875.841 1.875 1.875v1.125zM90 7.875h-3.375c-.743 0-1.438.2-2.04.545-.198-.325-.552-.545-.96-.545-.621 0-1.125.504-1.125 1.125v10.875c0 .621.504 1.125 1.125 1.125s1.125-.504 1.125-1.125V12c0-1.034.841-1.875 1.875-1.875H90c1.034 0 1.875.841 1.875 1.875v7.875c0 .621.504 1.125 1.125 1.125.622 0 1.125-.504 1.125-1.125V12c0-2.275-1.85-4.125-4.125-4.125M37.5 10.125c.621 0 1.125-.504 1.125-1.125s-.504-1.125-1.125-1.125h-2.625v-3.75c0-.621-.504-1.125-1.125-1.125s-1.125.504-1.125 1.125v3.75h-1.5C30.504 7.875 30 8.379 30 9s.504 1.125 1.125 1.125h1.5v6.75c0 2.275 1.85 4.125 4.125 4.125h.75c.621 0 1.125-.504 1.125-1.125s-.504-1.125-1.125-1.125h-.75c-1.034 0-1.875-.841-1.875-1.875v-6.75H37.5M103.875 18.75h-.75c-1.034 0-1.875-.841-1.875-1.875v-6.75h2.625c.622 0 1.125-.504 1.125-1.125s-.503-1.125-1.125-1.125h-2.625v-3.75c0-.621-.503-1.125-1.125-1.125S99 3.504 99 4.125v3.75h-1.5c-.621 0-1.125.504-1.125 1.125s.504 1.125 1.125 1.125H99v6.75C99 19.15 100.85 21 103.125 21h.75c.622 0 1.125-.504 1.125-1.125s-.503-1.125-1.125-1.125" transform="translate(-16 -18) translate(16 18)"/>
                    <path fill="#C00" d="M12 0c6.627 0 12 5.373 12 12s-5.373 12-12 12S0 18.627 0 12 5.373 0 12 0zM4.687 7.5c-.517 0-.937.42-.937.938v4.124c0 .518.42.938.938.938h12.361l-2.524 2.525c-.367.366-.367.96 0 1.325.182.183.423.275.662.275.24 0 .48-.091.663-.275l4.125-4.125c.366-.366.366-.96 0-1.325L15.85 7.775c-.365-.367-.96-.367-1.325 0-.367.366-.367.96 0 1.325l2.524 2.525H5.625V8.437c0-.517-.42-.937-.938-.937z" transform="translate(-16 -18) translate(16 18)"/>
                </g>
            </g>
        </g>
    </g>
</svg>
