<svg xmlns="http://www.w3.org/2000/svg" width="32" height="32" viewBox="0 0 32 32">
    <g fill="none" fill-rule="evenodd">
        <g>
            <g>
                <circle cx="16" cy="16" r="16" fill="#FFF"/>
                <g fill="#3C3C3B">
                    <path d="M14.656 18.48c0 .424-.347.77-.772.77h-10.8c-.425 0-.77-.346-.77-.77V5.365h12.342v13.113zm-.772 1.54c.852 0 1.543-.69 1.543-1.54V5.365h1.157c.212 0 .386-.173.386-.385 0-.214-.174-.386-.386-.386H.386c-.213 0-.386.172-.386.386 0 .212.173.385.386.385h1.157v13.113c0 .852.69 1.542 1.542 1.542h10.8zM5.228 2.996V1.542c0-.425.347-.772.772-.772h4.97c.426 0 .772.347.772.772v1.454H5.228zm11.356 0h-4.072V1.542C12.512.69 11.822 0 10.97 0H6c-.852 0-1.542.69-1.542 1.542v1.454H.386c-.213 0-.386.174-.386.386 0 .213.173.386.386.386h16.198c.213 0 .386-.173.386-.386 0-.212-.173-.386-.386-.386z" transform="translate(7.5 5.5)"/>
                    <path d="M5.758 8.49c.301-.301.79-.302 1.091 0l1.636 1.635 1.636-1.636c.301-.3.79-.3 1.091 0l1.09 1.092c.302.301.302.79.001 1.09l-1.636 1.637 1.636 1.636c.3.301.3.79 0 1.09l-1.09 1.092c-.302.3-.79.301-1.092 0L8.485 14.49 6.85 16.126c-.302.301-.79.3-1.091 0l-1.092-1.091c-.3-.301-.3-.79 0-1.091l1.637-1.636-1.637-1.636c-.3-.302-.3-.79 0-1.091z" transform="translate(7.5 5.5)"/>
                </g>
            </g>
        </g>
    </g>
</svg>
