<svg xmlns="http://www.w3.org/2000/svg" width="21" height="20" viewBox="0 0 21 20">
    <g fill="none" fill-rule="evenodd">
        <g fill="#676767">
            <g>
                <g>
                    <path d="M16.676 18.48c0 .424-.35.77-.778.77H5.003c-.43 0-.778-.346-.778-.77V5.365h12.45v13.113zm-.778 1.54c.859 0 1.556-.69 1.556-1.54V5.365h1.167c.214 0 .39-.173.39-.385 0-.214-.176-.386-.39-.386H2.28c-.215 0-.39.172-.39.386 0 .212.175.385.39.385h1.167v13.113c0 .852.696 1.542 1.555 1.542h10.895zM7.166 2.996V1.542c0-.425.35-.772.778-.772h5.014c.429 0 .778.347.778.772v1.454h-6.57zm11.455 0h-4.108V1.542C14.513.69 13.816 0 12.958 0H7.944c-.86 0-1.556.69-1.556 1.542v1.454H2.281c-.215 0-.39.174-.39.386 0 .213.175.386.39.386h16.34c.215 0 .39-.173.39-.386 0-.212-.175-.386-.39-.386z" transform="translate(-1140 -119) translate(1124 114) translate(16.14 5)"/>
                    <path d="M7.7 8.49c.304-.301.796-.302 1.1 0l1.651 1.635 1.65-1.636c.304-.3.797-.3 1.1 0l1.101 1.092c.304.301.304.79 0 1.09l-1.65 1.637 1.65 1.636c.304.301.304.79 0 1.09l-1.1 1.092c-.304.3-.797.301-1.1 0l-1.65-1.636L8.8 16.126c-.305.301-.797.3-1.101 0l-1.101-1.091c-.304-.301-.304-.79 0-1.091l1.65-1.636-1.65-1.636c-.304-.302-.304-.79 0-1.091z" transform="translate(-1140 -119) translate(1124 114) translate(16.14 5)"/>
                </g>
            </g>
        </g>
    </g>
</svg>
